<svg width="375" height="794" viewBox="0 0 375 794" fill="none" xmlns="http://www.w3.org/2000/svg">
<path d="M506 644.746C520.081 603.021 522.714 510.325 467.812 473.03C412.909 435.734 315.471 452.013 279 473.03C242.529 494.047 108.5 503 128 435.246C154.56 342.959 166.5 306.746 100 329.246C33.5 351.746 62.4765 291.629 -12 301.746C-71.5812 309.839 -132 398.746 -183 294.746" stroke="#3DA0A7"/>
<path d="M20.118 60.1502C36.3349 83.0634 16.9802 102.828 2.69825 103.553C-48.6615 105.599 -36.4129 85.8455 -31.8172 53.6139C-27.2215 21.3822 3.90112 37.2371 20.118 60.1502Z" stroke="#3DA0A7"/>
<path d="M162.26 -59.2404C168.419 -53.8555 178.032 -34.527 167.217 -0.291725C153.698 42.5024 126.736 130.658 186.691 136.593C246.646 142.529 292.355 123.192 283.984 100.957C275.613 78.7229 227.24 94.9269 242.548 156.139C257.857 217.351 338.498 249.011 398.919 205.472" stroke="#3DA0A7"/>
<path d="M131.796 244.748C137 242.597 141.788 238.85 144.98 235.173C151.433 227.679 152.474 216.646 150.322 207.001C149.212 201.935 147.269 196.939 144.147 192.776C136.237 181.951 122.498 175.984 109.175 175.082C100.918 174.527 91.8972 176.817 84.9583 181.257C73.648 188.613 68.5826 204.295 74.4806 217.409C79.8929 229.413 88.7053 227.193 98.4197 232.536C106.399 236.907 111.187 245.789 121.179 246.691C124.718 246.969 128.396 246.205 131.796 244.748Z" fill="#F4F4F4"/>
<path d="M74.5501 217.34C79.9625 229.344 88.7748 227.123 98.4892 232.466C106.469 236.838 111.257 245.72 121.249 246.622C124.718 246.899 128.326 246.136 131.796 244.679C133.877 243.846 135.82 242.736 137.694 241.487C114.449 240.307 87.3871 222.405 82.6686 207.764C79.338 197.356 83.2237 186.878 87.1095 179.87C86.3462 180.286 85.6523 180.702 84.9584 181.119C73.7175 188.543 68.6521 204.225 74.5501 217.34Z" fill="#E3E3E3"/>
<path d="M126.938 229.899C135.408 229.899 142.273 223.033 142.273 214.564C142.273 206.095 135.408 199.229 126.938 199.229C118.469 199.229 111.604 206.095 111.604 214.564C111.604 223.033 118.469 229.899 126.938 229.899Z" fill="#EBB64A"/>
<path d="M130.894 226.846C122.428 226.846 115.559 219.976 115.559 211.511C115.559 207.486 117.155 203.809 119.722 201.033C114.934 203.601 111.604 208.666 111.604 214.564C111.604 223.029 118.473 229.899 126.938 229.899C131.379 229.899 135.334 228.025 138.11 225.042C135.959 226.221 133.461 226.846 130.894 226.846Z" fill="#E3A63B"/>
<path d="M138.387 215.535C136.306 217.131 136.583 212.343 133.877 208.874C131.171 205.404 126.453 204.502 128.534 202.906C130.616 201.31 134.502 202.768 137.208 206.237C139.983 209.776 140.469 213.87 138.387 215.535Z" fill="white"/>
<path d="M263.085 180.791C259.807 179.611 256.135 179.742 252.923 181.25C246.105 184.528 234.566 190.822 233.123 197.181C231.091 206.36 254.496 217.964 277.443 237.239C300.389 256.514 302.881 264.25 307.011 257.628C311.141 251.007 327.532 233.633 314.55 213.243C304.323 197.115 275.017 185.118 263.085 180.791Z" fill="#ECB579"/>
<path d="M307.011 257.628C309.305 253.957 315.468 246.876 318.156 237.829C314.55 241.304 310.027 244.188 304.716 242.68C292.194 239.14 268.002 209.179 249.907 197.902C244.007 194.165 239.221 192.919 235.549 192.919C234.369 194.362 233.517 195.804 233.189 197.246C231.157 206.425 254.562 218.029 277.508 237.304C300.324 256.514 302.88 264.25 307.011 257.628Z" fill="#DFA164"/>
<path d="M261.643 221.307C264.134 220.586 266.822 220.586 269.445 220.52C270.1 220.52 270.756 220.52 271.411 220.52C282.032 220.258 290.686 216.914 295.866 211.014C296.98 209.703 297.964 208.326 298.947 206.949C299.34 206.359 299.734 205.769 300.193 205.179C301.111 203.868 302.16 202.622 303.209 201.376C302.75 201.049 302.291 200.721 301.832 200.393C300.783 201.639 299.799 202.884 298.816 204.196C298.423 204.786 297.964 205.376 297.57 205.966C296.652 207.277 295.669 208.654 294.62 209.899C289.769 215.472 281.508 218.619 271.411 218.881C270.756 218.881 270.166 218.881 269.51 218.881C266.757 218.881 264.003 218.947 261.249 219.734C259.741 220.193 258.365 220.783 257.053 221.569C257.578 221.897 258.037 222.291 258.561 222.618C259.479 222.094 260.528 221.635 261.643 221.307Z" fill="#F2D0A4"/>
<path d="M249.383 206.032C250.563 206.359 251.743 206.622 252.857 206.95C258.561 208.392 265.249 209.572 271.542 207.474C276.263 205.901 280.196 202.688 283.737 199.344C285.966 197.312 288.064 195.149 290.162 193.051C289.637 192.788 289.178 192.46 288.654 192.198C286.687 194.231 284.655 196.197 282.622 198.099C279.213 201.246 275.476 204.393 271.018 205.835C265.183 207.736 258.758 206.622 253.251 205.245C252.071 204.983 250.956 204.655 249.776 204.327C244.99 203.081 240.007 201.77 234.959 201.77C234.631 201.77 234.304 201.77 233.976 201.77C234.304 202.295 234.631 202.885 235.025 203.409C239.876 203.54 244.728 204.786 249.383 206.032Z" fill="#F2D0A4"/>
<path d="M252.726 215.079C257.25 213.636 262.036 213.702 265.773 213.899C266.101 213.899 266.429 213.964 266.822 213.964C269.313 214.095 271.87 214.226 274.427 213.702C277.64 212.981 280.393 211.145 282.95 209.375C286.949 206.556 291.08 203.409 294.161 199.147C294.817 198.23 295.341 197.377 295.866 196.394C295.407 196.066 294.948 195.804 294.423 195.542C293.964 196.459 293.44 197.312 292.784 198.164C289.899 202.229 285.9 205.31 281.967 207.998C279.541 209.703 276.918 211.407 273.968 212.063C271.673 212.587 269.182 212.456 266.822 212.325C266.494 212.325 266.166 212.26 265.773 212.26C261.905 212.063 256.857 211.997 252.136 213.505C250.694 213.964 249.383 214.554 248.137 215.21C248.596 215.603 249.12 215.931 249.645 216.324C250.628 215.8 251.677 215.407 252.726 215.079Z" fill="#F2D0A4"/>
<path d="M268.133 193.313C265.052 194.69 261.184 194.69 256.332 193.313C251.546 191.936 247.023 189.707 243.023 186.757C242.499 187.085 242.04 187.412 241.515 187.74C245.777 190.953 250.694 193.444 255.873 194.952C261.118 196.46 265.38 196.46 268.854 194.886C272.591 193.182 275.017 189.969 277.115 186.494C276.591 186.232 276.066 186.036 275.542 185.839C273.509 188.986 271.411 191.87 268.133 193.313Z" fill="#F2D0A4"/>
<path d="M246.76 184.462C250.694 186.625 255.087 188.527 259.741 188.986C261.839 189.182 263.609 189.051 265.117 188.461C267.346 187.674 269.248 185.97 270.625 183.675C270.1 183.478 269.576 183.216 269.051 183.02C267.871 184.855 266.363 186.232 264.593 186.822C263.347 187.281 261.839 187.412 259.938 187.215C255.939 186.822 252.071 185.249 248.53 183.413C247.94 183.806 247.35 184.134 246.76 184.462Z" fill="#F2D0A4"/>
<path d="M273.509 198.033C266.822 202.491 257.775 203.081 250.563 199.541C248.858 198.689 247.154 197.64 245.58 196.591C242.695 194.755 239.745 192.788 236.27 192.067C235.812 192.526 235.353 193.05 234.959 193.575C235.287 193.641 235.549 193.641 235.877 193.706C239.024 194.362 241.778 196.132 244.662 197.968C246.301 199.017 248.071 200.131 249.842 201.049C257.578 204.851 267.281 204.196 274.427 199.41C278.164 196.919 281.18 193.378 283.081 189.313C282.557 189.051 282.098 188.855 281.573 188.592C279.803 192.395 277.05 195.673 273.509 198.033Z" fill="#F2D0A4"/>
<path d="M300.061 253.629C302.094 247.335 303.995 241.435 308.322 236.845C309.502 235.6 310.879 234.485 312.19 233.371C312.715 232.912 313.239 232.453 313.829 231.994C315.796 230.289 317.632 228.454 319.402 226.552C319.336 225.831 319.205 225.11 319.074 224.323C317.173 226.618 315.009 228.781 312.715 230.748C312.19 231.207 311.666 231.666 311.141 232.059C309.764 233.174 308.322 234.354 307.076 235.665C302.487 240.517 300.455 246.876 298.422 253.105C298.16 253.957 297.898 254.809 297.57 255.662C298.029 256.12 298.488 256.514 298.947 256.907C299.34 255.793 299.668 254.744 300.061 253.629Z" fill="#F2D0A4"/>
<path d="M308.453 255.464C308.847 254.874 309.306 254.284 309.765 253.629C309.502 252.055 309.371 250.416 309.633 248.843C310.092 245.696 311.731 242.746 313.436 240.058C315.206 237.238 317.173 234.485 319.271 231.928C319.336 231.01 319.402 230.092 319.402 229.109C316.714 232.321 314.223 235.665 311.994 239.14C310.158 242.024 308.388 245.106 307.929 248.581C307.667 250.941 307.929 253.235 308.453 255.464Z" fill="#F2D0A4"/>
<path d="M294.489 244.254C296.915 240.91 299.865 237.96 302.75 235.075C304.848 232.912 307.077 230.748 309.044 228.388C312.19 224.651 314.682 220.717 316.452 216.587C316.124 215.931 315.796 215.341 315.403 214.686C313.698 219.013 311.076 223.34 307.732 227.273C305.765 229.568 303.602 231.797 301.504 233.895C298.619 236.845 295.603 239.861 293.112 243.27C291.866 244.975 290.817 246.745 290.031 248.45C290.49 248.843 290.883 249.302 291.342 249.695C292.129 247.86 293.178 246.024 294.489 244.254Z" fill="#F2D0A4"/>
<path d="M284.065 227.405C284.851 227.011 285.704 226.618 286.49 226.159C291.014 223.93 295.669 221.635 299.537 218.292C303.274 215.079 306.355 210.883 308.519 206.032C308.126 205.638 307.667 205.245 307.208 204.852C305.11 209.703 302.159 213.833 298.422 217.046C294.685 220.258 290.096 222.488 285.704 224.717C284.917 225.11 284.065 225.503 283.278 225.962C279.41 227.929 275.476 230.158 272.198 233.108C272.657 233.436 273.05 233.83 273.509 234.157C276.656 231.404 280.393 229.306 284.065 227.405Z" fill="#F2D0A4"/>
<path d="M281.901 240.976C284.786 238.288 288.129 235.993 291.342 233.829C294.686 231.535 298.16 229.175 301.176 226.355C305.962 221.897 309.502 216.325 312.912 210.949C312.584 210.49 312.19 210.031 311.797 209.572C308.388 215.013 304.782 220.717 300.062 225.175C297.111 227.929 293.702 230.289 290.424 232.518C287.146 234.747 283.737 237.042 280.787 239.861C280.721 239.927 280.655 239.992 280.59 240.058C280.983 240.32 281.442 240.713 281.901 240.976C281.836 241.041 281.836 241.041 281.901 240.976Z" fill="#F2D0A4"/>
<path d="M296.581 445.033C295.394 445.307 294.206 446.586 293.476 447.225C292.106 448.413 290.644 449.326 289 450.148C289.548 450.97 290.827 451.427 291.74 451.609C292.745 451.792 293.658 451.609 294.663 451.427C295.12 451.335 295.577 451.153 296.033 450.97C297.403 450.148 299.778 446.768 298.043 445.398C297.586 445.033 297.038 444.942 296.581 445.033Z" fill="#7CA661"/>
<path d="M177.658 165.928C176.654 165.014 176.197 163.37 175.74 162C175.009 162.731 174.096 163.187 173 163.279C173.457 165.288 174.644 167.115 176.471 168.028C176.562 167.389 177.11 166.384 177.658 165.928Z" fill="#AEDC90"/>
<path d="M183.129 321.466L180.754 319C180.754 319 180.389 324.937 175 327.129L177.192 328.773C177.192 328.773 181.759 326.947 183.129 321.466Z" fill="#AEDC90"/>
<path d="M43.9352 388C42.3824 388.913 40.921 389.735 39.3682 390.649C38.4548 391.197 37.5414 391.654 36.902 392.476C36.1713 393.298 35.4406 394.759 36.628 395.49C37.8154 396.221 40.0076 395.033 41.0123 394.394C42.0171 393.754 43.0218 393.024 43.6612 391.928C44.94 389.918 43.7525 388.091 43.9352 388Z" fill="#7CA661"/>
<path d="M51.1511 245.855C51.6078 248.139 53.252 249.966 55.2614 251.153C57.1796 252.249 59.2804 252.432 61.4726 252.34C61.5639 252.34 61.6552 252.34 61.7466 252.34C61.7466 252.249 61.7466 252.158 61.7466 252.066C61.5639 249.144 60.5592 246.403 58.9151 243.937C57.3623 241.654 55.2614 239.827 53.1606 238C51.6078 240.284 50.6031 243.298 51.1511 245.855Z" fill="#AEDC90"/>
<path d="M51.1511 245.855C51.6078 248.139 53.252 249.966 55.2614 251.153C57.1796 252.249 59.2804 252.432 61.4726 252.34C61.5639 252.34 61.6552 252.34 61.7466 252.34C52.2472 247.043 53.1606 238 53.1606 238C51.6078 240.284 50.6031 243.298 51.1511 245.855Z" fill="#7CA661"/>
<path d="M53.5257 242.567C53.9824 244.759 55.2612 246.951 56.7226 248.595C58.0014 250.057 59.5542 251.427 61.381 252.34C61.4723 252.34 61.5637 252.34 61.655 252.34C61.655 252.249 61.655 252.158 61.655 252.066C59.9196 251.062 58.2754 249.965 56.9967 248.321C56.2659 247.408 55.6266 246.495 55.0785 245.49C54.5305 244.485 54.2565 243.48 53.8911 242.476C53.7998 242.293 53.5257 242.384 53.5257 242.567Z" fill="#39700B"/>
<path d="M347.595 212.855C347.139 215.139 345.495 216.966 343.485 218.153C341.567 219.249 339.466 219.432 337.274 219.34C337.183 219.34 337.091 219.34 337 219.34C337 219.249 337 219.158 337 219.066C337.183 216.144 338.187 213.403 339.832 210.937C341.384 208.654 343.485 206.827 345.586 205C347.139 207.284 348.143 210.298 347.595 212.855Z" fill="#AEDC90"/>
<path d="M347.595 212.855C347.139 215.139 345.495 216.966 343.485 218.153C341.567 219.249 339.466 219.432 337.274 219.34C337.183 219.34 337.091 219.34 337 219.34C346.499 214.043 345.586 205 345.586 205C347.139 207.284 348.143 210.298 347.595 212.855Z" fill="#7CA661"/>
<path d="M345.221 209.567C344.764 211.759 343.485 213.951 342.024 215.595C340.745 217.057 339.192 218.427 337.366 219.34C337.274 219.34 337.183 219.34 337.092 219.34C337.092 219.249 337.092 219.158 337.092 219.066C338.827 218.062 340.471 216.965 341.75 215.321C342.481 214.408 343.12 213.495 343.668 212.49C344.216 211.485 344.49 210.48 344.855 209.476C344.947 209.293 345.221 209.384 345.221 209.567Z" fill="#39700B"/>
<path d="M108.913 453.65C111.383 450.485 115.937 449.945 119.101 452.415C121.88 454.576 122.652 458.358 121.108 461.369L134.539 466L145.19 423.316C143.724 423.316 142.18 422.852 140.868 421.849C137.858 419.456 137.317 415.134 139.633 412.046C141.717 409.345 145.499 408.65 148.432 410.194L154.067 387.578L136.237 376L125.045 384.182C125.739 386.42 125.431 388.967 123.887 390.897C121.494 393.985 117.017 394.602 113.852 392.286L84.2899 413.822C84.9074 414.053 85.5249 414.362 86.0652 414.748C88.5352 416.678 88.9983 420.305 87.0686 422.852C85.1389 425.322 81.5112 425.786 78.964 423.856C77.4974 422.698 76.7256 421 76.7256 419.302L67 426.403L90.3105 450.64L107.369 456.506C107.755 455.58 108.218 454.576 108.913 453.65Z" fill="#EBB64A"/>
<path d="M136.391 376.077L125.199 384.259C125.894 386.497 125.585 389.045 124.041 390.974C121.648 394.062 117.171 394.679 114.007 392.364L84.4442 413.899C85.0617 414.13 85.6792 414.439 86.2195 414.825C88.6895 416.755 89.1526 420.382 87.2229 422.93C85.2932 425.4 81.6654 425.863 79.1183 423.933C77.6517 422.775 76.8799 421.077 76.8799 419.379L67.1543 426.48L90.4648 450.717L154.221 387.578L136.391 376.077Z" fill="#EEC94D"/>
<path d="M112.463 415.751C110.842 417.835 107.909 418.144 105.825 416.6C103.741 414.979 103.432 412.046 104.976 409.962C106.597 407.878 109.53 407.569 111.614 409.113C113.698 410.734 114.084 413.744 112.463 415.751Z" fill="#EBB64A"/>
<path d="M143.415 390.974C142.412 392.287 140.482 392.518 139.17 391.515C137.858 390.511 137.626 388.582 138.63 387.269C139.633 385.957 141.563 385.726 142.875 386.729C144.187 387.733 144.419 389.662 143.415 390.974Z" fill="#EBB64A"/>
<path d="M99.5729 436.823C97.7976 439.062 94.5558 439.448 92.3174 437.749C90.0789 435.974 89.693 432.732 91.3911 430.494C93.1664 428.255 96.4083 427.87 98.6467 429.568C100.962 431.343 101.348 434.585 99.5729 436.823Z" fill="#EBB64A"/>
<path d="M132.377 442.844C130.911 444.773 128.132 445.082 126.202 443.616C124.273 442.149 123.964 439.37 125.431 437.441C126.897 435.511 129.676 435.202 131.606 436.669C133.535 438.135 133.844 440.914 132.377 442.844Z" fill="#CC9431"/>
<path d="M247.761 421.391C247.761 421.391 223.184 441.829 217.751 441.829C212.318 441.829 208.524 433.291 202.573 440.449C196.537 447.606 209.817 452.522 209.817 452.522C209.817 452.522 206.626 462.008 213.353 465.285C220.079 468.562 220.769 459.938 222.494 452.436C224.132 444.933 256.557 431.825 256.557 431.825L247.761 421.391Z" fill="#F2D0A4"/>
<path d="M327.185 403.453C338.827 382.929 319.768 358.007 296.916 363.871C296.571 363.957 296.312 364.043 295.967 364.13C278.375 369.304 241.725 419.062 242.759 423.46C244.398 430.532 251.814 422.598 248.968 428.634C246.123 434.671 243.018 438.896 258.541 435.706C274.149 432.515 319.079 416.82 326.754 404.143C326.926 403.885 327.099 403.626 327.185 403.453Z" fill="#C89059"/>
<path d="M283.722 387.5C300.107 372.236 312.783 368.786 319.424 368.269C313.387 363.785 305.453 361.715 296.916 363.871C296.571 363.957 296.312 364.043 295.967 364.13C278.375 369.304 241.725 419.062 242.759 423.46C244.398 430.532 251.814 422.598 248.968 428.634C246.123 434.671 243.018 438.896 258.541 435.706C260.869 435.188 263.887 434.412 267.337 433.464C265.957 423.719 265.871 404.143 283.722 387.5Z" fill="#BA7F4A"/>
<path d="M292.259 392.329C291.397 392.846 290.189 392.587 289.672 391.725C289.155 390.863 289.413 389.655 290.276 389.138C291.138 388.621 292.345 388.879 292.863 389.742C293.38 390.604 293.121 391.811 292.259 392.329Z" fill="#BA7F4A"/>
<path d="M284.584 402.246C283.549 402.85 282.256 402.591 281.566 401.556C280.962 400.521 281.221 399.228 282.256 398.538C283.291 397.934 284.584 398.193 285.274 399.228C285.964 400.263 285.619 401.556 284.584 402.246Z" fill="#BA7F4A"/>
<path d="M278.892 413.543C277.858 414.147 276.564 413.888 275.874 412.853C275.271 411.818 275.529 410.525 276.564 409.835C277.599 409.231 278.892 409.49 279.582 410.525C280.272 411.56 279.841 412.853 278.892 413.543Z" fill="#BA7F4A"/>
<path d="M288.723 409.921C287.947 410.438 286.912 410.18 286.481 409.403C285.964 408.627 286.222 407.592 286.999 407.161C287.775 406.644 288.809 406.903 289.241 407.679C289.758 408.455 289.499 409.403 288.723 409.921Z" fill="#BA7F4A"/>
<path d="M302.694 387.068C301.918 387.586 300.883 387.327 300.452 386.551C299.934 385.775 300.193 384.74 300.969 384.309C301.745 383.791 302.78 384.05 303.211 384.826C303.729 385.602 303.47 386.637 302.694 387.068Z" fill="#BA7F4A"/>
<path d="M234.9 338.8C248.1 338.8 258.8 328.1 258.8 314.9C258.8 301.7 248.1 291 234.9 291C221.7 291 211 301.7 211 314.9C211 328.1 221.7 338.8 234.9 338.8Z" fill="#EBB64A"/>
<path d="M234.9 336.468C246.812 336.468 256.468 326.812 256.468 314.9C256.468 302.988 246.812 293.332 234.9 293.332C222.988 293.332 213.332 302.988 213.332 314.9C213.332 326.812 222.988 336.468 234.9 336.468Z" fill="white"/>
<path d="M215.664 314.252H230.237C231.338 314.252 231.921 312.892 231.143 312.115L220.845 301.752C220.327 301.234 219.42 301.298 218.967 301.817C216.441 304.861 214.822 308.682 214.433 312.827C214.368 313.605 214.951 314.252 215.664 314.252Z" fill="#EEC94D"/>
<path d="M230.301 315.483H215.663C214.886 315.483 214.303 316.131 214.433 316.908C214.821 321.053 216.505 324.875 218.967 327.919C219.42 328.502 220.327 328.566 220.845 327.983L231.143 317.685C231.985 316.843 231.403 315.483 230.301 315.483Z" fill="#EEC94D"/>
<path d="M232.827 294.433C228.682 294.821 224.861 296.505 221.817 298.967C221.234 299.42 221.169 300.327 221.752 300.845L232.05 311.143C232.827 311.92 234.188 311.402 234.188 310.236V295.663C234.252 294.951 233.605 294.368 232.827 294.433Z" fill="#EEC94D"/>
<path d="M237.685 311.208L247.983 300.91C248.502 300.392 248.437 299.485 247.919 299.031C244.874 296.505 241.053 294.886 236.908 294.498C236.131 294.433 235.483 295.016 235.483 295.728V310.301C235.483 311.402 236.843 311.985 237.685 311.208Z" fill="#EEC94D"/>
<path d="M239.434 314.252H254.007C254.784 314.252 255.367 313.605 255.238 312.827C254.849 308.682 253.165 304.861 250.704 301.817C250.25 301.234 249.344 301.169 248.825 301.752L238.527 312.05C237.75 312.892 238.333 314.252 239.434 314.252Z" fill="#EEC94D"/>
<path d="M254.072 315.483H239.499C238.398 315.483 237.815 316.843 238.592 317.62L248.89 327.919C249.409 328.437 250.315 328.372 250.769 327.854C253.295 324.81 254.914 320.988 255.303 316.843C255.367 316.131 254.784 315.483 254.072 315.483Z" fill="#EEC94D"/>
<path d="M232.115 318.527L221.816 328.825C221.298 329.343 221.363 330.25 221.881 330.704C224.925 333.23 228.747 334.849 232.892 335.237C233.669 335.302 234.317 334.719 234.317 334.007V319.434C234.252 318.333 232.892 317.75 232.115 318.527Z" fill="#EEC94D"/>
<path d="M237.685 318.527C236.908 317.75 235.548 318.268 235.548 319.434V334.007C235.548 334.784 236.196 335.367 236.973 335.237C241.118 334.849 244.939 333.165 247.984 330.703C248.567 330.25 248.631 329.343 248.048 328.825L237.685 318.527Z" fill="#EEC94D"/>
<path d="M111.123 320.239C111.123 320.239 114.201 321.383 115.959 319.238C117.718 317.093 120.356 311.016 126.292 309.014C127.831 308.514 129.15 308.085 130.322 307.727C132.887 306.941 134.939 305.01 135.819 302.508C136.771 299.934 138.823 296.645 143.293 294.643C151.427 291.069 151.281 288.066 152.233 285.492C153.186 282.918 159.561 290.783 158.169 301.15C156.777 311.516 146.591 318.451 146.591 318.451C146.591 318.451 142.267 323.885 132.741 326.53C123.288 329.176 118.964 323.671 117.279 322.813C115.666 321.955 112.662 324.457 111.196 323.17C109.877 321.955 111.123 320.239 111.123 320.239Z" fill="#D4E86D"/>
<path d="M158.169 301.221C159.562 290.854 153.186 282.918 152.234 285.563C151.647 287.208 151.501 288.995 149.376 290.997C150.548 292.928 151.721 296.002 151.574 300.721C151.281 310.158 142.341 308.943 139.483 312.088C136.625 315.234 137.138 322.741 127.391 323.456C121.602 323.885 118.231 321.097 116.473 318.594C116.253 318.88 116.106 319.095 115.96 319.309C114.201 321.454 111.123 320.31 111.123 320.31C111.123 320.31 109.877 321.955 111.27 323.242C112.662 324.529 115.666 322.026 117.352 322.884C118.964 323.742 123.288 329.247 132.814 326.602C142.267 323.957 146.664 318.523 146.664 318.523C146.664 318.523 156.704 311.588 158.169 301.221Z" fill="#B5CD5A"/>
<path d="M246.055 263C243.315 263 243.315 267.293 246.055 267.293C248.795 267.202 248.795 263 246.055 263Z" fill="#FFF1CE"/>
<path d="M196.016 412.011H195.925C195.377 412.103 194.92 412.742 195.012 413.29C195.012 413.838 195.377 414.478 195.925 414.569H196.016C196.839 414.752 197.661 414.204 197.661 413.29C197.661 412.377 196.839 411.92 196.016 412.011Z" fill="#FFF1CE"/>
<path d="M170.85 249C168.383 249 168.383 252.836 170.85 252.836C173.316 252.836 173.316 249 170.85 249Z" fill="#FFF1CE"/>
</svg>
